<svg width="144" height="46" viewBox="0 0 144 46" fill="none" xmlns="http://www.w3.org/2000/svg">
<path d="M1.476 34.624H3.996V14.248H1.476V11.872H20.664V18.568H16.488V14.464H9.828V34.624H13.248V37H1.476V34.624ZM23.1323 34.624H25.6523V14.248H23.1323V11.872H43.1843V18.568H39.0083V14.464H31.4843V22.6H36.2363V20.44H38.9003V27.352H36.2363V25.192H31.4843V34.408H39.2963V29.584H43.4723V37H23.1323V34.624ZM59.0316 34.768C59.7756 34.768 60.4716 34.648 61.1196 34.408C61.7676 34.168 62.3316 33.796 62.8116 33.292C63.3156 32.788 63.7116 32.14 63.9996 31.348C64.2876 30.556 64.4316 29.608 64.4316 28.504V20.368C64.4316 19.264 64.2876 18.316 63.9996 17.524C63.7116 16.732 63.3156 16.084 62.8116 15.58C62.3316 15.076 61.7676 14.704 61.1196 14.464C60.4716 14.224 59.7756 14.104 59.0316 14.104C58.2876 14.104 57.5916 14.224 56.9436 14.464C56.2956 14.704 55.7196 15.076 55.2156 15.58C54.7356 16.084 54.3516 16.732 54.0636 17.524C53.7756 18.316 53.6316 19.264 53.6316 20.368V28.504C53.6316 29.608 53.7756 30.556 54.0636 31.348C54.3516 32.14 54.7356 32.788 55.2156 33.292C55.7196 33.796 56.2956 34.168 56.9436 34.408C57.5916 34.648 58.2876 34.768 59.0316 34.768ZM59.0316 37.432C57.3516 37.432 55.7916 37.144 54.3516 36.568C52.9116 35.992 51.6636 35.164 50.6076 34.084C49.5516 32.98 48.7236 31.624 48.1236 30.016C47.5236 28.384 47.2236 26.524 47.2236 24.436C47.2236 22.348 47.5236 20.5 48.1236 18.892C48.7236 17.26 49.5516 15.904 50.6076 14.824C51.6636 13.72 52.9116 12.88 54.3516 12.304C55.7916 11.728 57.3516 11.44 59.0316 11.44C60.7116 11.44 62.2716 11.728 63.7116 12.304C65.1516 12.88 66.3996 13.72 67.4556 14.824C68.5116 15.904 69.3396 17.26 69.9396 18.892C70.5396 20.5 70.8396 22.348 70.8396 24.436C70.8396 26.524 70.5396 28.384 69.9396 30.016C69.3396 31.624 68.5116 32.98 67.4556 34.084C66.3996 35.164 65.1516 35.992 63.7116 36.568C62.2716 37.144 60.7116 37.432 59.0316 37.432ZM75.1703 24.04H85.9703V28H75.1703V24.04Z" fill="#DAD2CA"/>
<path d="M105.65 17.128H94.3103V20.872H91.6823V11.872H109.034V16.3L100.898 37H95.2463L105.65 17.128ZM112.548 34.624H115.068V14.248H112.548V11.872H124.284C126.012 11.872 127.608 12.16 129.072 12.736C130.56 13.288 131.844 14.104 132.924 15.184C134.004 16.24 134.844 17.548 135.444 19.108C136.068 20.668 136.38 22.444 136.38 24.436C136.38 26.428 136.068 28.204 135.444 29.764C134.844 31.324 134.004 32.644 132.924 33.724C131.844 34.78 130.56 35.596 129.072 36.172C127.608 36.724 126.012 37 124.284 37H112.548V34.624ZM120.9 34.408H123.24C124.44 34.408 125.46 34.288 126.3 34.048C127.164 33.808 127.86 33.436 128.388 32.932C128.94 32.404 129.336 31.72 129.576 30.88C129.84 30.016 129.972 28.972 129.972 27.748V21.124C129.972 19.9 129.84 18.868 129.576 18.028C129.336 17.164 128.94 16.48 128.388 15.976C127.86 15.448 127.164 15.064 126.3 14.824C125.46 14.584 124.44 14.464 123.24 14.464H120.9V34.408Z" fill="#A7978B"/>
</svg>
