<svg width="144" height="46" viewBox="0 0 144 46" fill="none" xmlns="http://www.w3.org/2000/svg">
<path d="M1.476 34.624H3.996V14.248H1.476V11.872H20.664V18.568H16.488V14.464H9.828V34.624H13.248V37H1.476V34.624ZM23.1323 34.624H25.6523V14.248H23.1323V11.872H43.1843V18.568H39.0083V14.464H31.4843V22.6H36.2363V20.44H38.9003V27.352H36.2363V25.192H31.4843V34.408H39.2963V29.584H43.4723V37H23.1323V34.624ZM59.0316 34.768C59.7756 34.768 60.4716 34.648 61.1196 34.408C61.7676 34.168 62.3316 33.796 62.8116 33.292C63.3156 32.788 63.7116 32.14 63.9996 31.348C64.2876 30.556 64.4316 29.608 64.4316 28.504V20.368C64.4316 19.264 64.2876 18.316 63.9996 17.524C63.7116 16.732 63.3156 16.084 62.8116 15.58C62.3316 15.076 61.7676 14.704 61.1196 14.464C60.4716 14.224 59.7756 14.104 59.0316 14.104C58.2876 14.104 57.5916 14.224 56.9436 14.464C56.2956 14.704 55.7196 15.076 55.2156 15.58C54.7356 16.084 54.3516 16.732 54.0636 17.524C53.7756 18.316 53.6316 19.264 53.6316 20.368V28.504C53.6316 29.608 53.7756 30.556 54.0636 31.348C54.3516 32.14 54.7356 32.788 55.2156 33.292C55.7196 33.796 56.2956 34.168 56.9436 34.408C57.5916 34.648 58.2876 34.768 59.0316 34.768ZM59.0316 37.432C57.3516 37.432 55.7916 37.144 54.3516 36.568C52.9116 35.992 51.6636 35.164 50.6076 34.084C49.5516 32.98 48.7236 31.624 48.1236 30.016C47.5236 28.384 47.2236 26.524 47.2236 24.436C47.2236 22.348 47.5236 20.5 48.1236 18.892C48.7236 17.26 49.5516 15.904 50.6076 14.824C51.6636 13.72 52.9116 12.88 54.3516 12.304C55.7916 11.728 57.3516 11.44 59.0316 11.44C60.7116 11.44 62.2716 11.728 63.7116 12.304C65.1516 12.88 66.3996 13.72 67.4556 14.824C68.5116 15.904 69.3396 17.26 69.9396 18.892C70.5396 20.5 70.8396 22.348 70.8396 24.436C70.8396 26.524 70.5396 28.384 69.9396 30.016C69.3396 31.624 68.5116 32.98 67.4556 34.084C66.3996 35.164 65.1516 35.992 63.7116 36.568C62.2716 37.144 60.7116 37.432 59.0316 37.432ZM75.1703 24.04H85.9703V28H75.1703V24.04Z" fill="#DAD2CA"/>
<path d="M90.9623 34.624H93.4823V14.248H90.9623V11.872H102.698C104.426 11.872 106.022 12.16 107.486 12.736C108.974 13.288 110.258 14.104 111.338 15.184C112.418 16.24 113.258 17.548 113.858 19.108C114.482 20.668 114.794 22.444 114.794 24.436C114.794 26.428 114.482 28.204 113.858 29.764C113.258 31.324 112.418 32.644 111.338 33.724C110.258 34.78 108.974 35.596 107.486 36.172C106.022 36.724 104.426 37 102.698 37H90.9623V34.624ZM99.3143 34.408H101.654C102.854 34.408 103.874 34.288 104.714 34.048C105.578 33.808 106.274 33.436 106.802 32.932C107.354 32.404 107.75 31.72 107.99 30.88C108.254 30.016 108.386 28.972 108.386 27.748V21.124C108.386 19.9 108.254 18.868 107.99 18.028C107.75 17.164 107.354 16.48 106.802 15.976C106.274 15.448 105.578 15.064 104.714 14.824C103.874 14.584 102.854 14.464 101.654 14.464H99.3143V34.408ZM132.826 17.128H121.486V20.872H118.858V11.872H136.21V16.3L128.074 37H122.422L132.826 17.128Z" fill="#A7978B"/>
</svg>
